RobotoDelta-wghtmin-old.ufo
<glyph name="two" format="1">
  <advance width="1156"/>
  <unicode hex="0032"/>
  <outline>
    <contour>
      <point x="102" y="0" type="line"/>
      <point x="1013" y="0" type="line"/>
      <point x="1013" y="86" type="line"/>
      <point x="223" y="86" type="line"/>
      <point x="710" y="617" type="line" smooth="yes"/>
      <point x="809" y="725"/>
      <point x="950" y="944"/>
      <point x="950" y="1083" type="qcurve" smooth="yes"/>
      <point x="950" y="1259"/>
      <point x="741" y="1482"/>
      <point x="552" y="1482" type="qcurve" smooth="yes"/>
      <point x="361" y="1482"/>
      <point x="128" y="1262"/>
      <point x="128" y="1055" type="qcurve" smooth="yes"/>
      <point x="128" y="1018" type="line"/>
      <point x="217" y="1018" type="line"/>
      <point x="217" y="1071" type="line" smooth="yes"/>
      <point x="217" y="1229"/>
      <point x="398" y="1396"/>
      <point x="552" y="1396" type="qcurve" smooth="yes"/>
      <point x="694" y="1396"/>
      <point x="858" y="1223"/>
      <point x="858" y="1084" type="qcurve" smooth="yes"/>
      <point x="858" y="963"/>
      <point x="731" y="766"/>
      <point x="636" y="662" type="qcurve" smooth="yes"/>
      <point x="102" y="74" type="line"/>
    </contour>
  </outline>
</glyph>
<glyph name="seven" format="1">
  <advance width="1156"/>
  <unicode hex="0037"/>
  <outline>
    <contour>
      <point x="229" y="0" type="line"/>
      <point x="329" y="0" type="line"/>
      <point x="998" y="1405" type="line"/>
      <point x="998" y="1456" type="line"/>
      <point x="128" y="1456" type="line"/>
      <point x="128" y="1370" type="line"/>
      <point x="885" y="1370" type="line"/>
    </contour>
  </outline>
</glyph>
<glyph name="nine" format="1">
  <advance width="1156"/>
  <unicode hex="0039"/>
  <outline>
    <contour>
      <point x="115" y="1003" type="qcurve" smooth="yes"/>
      <point x="115" y="793"/>
      <point x="358" y="556"/>
      <point x="533" y="556" type="qcurve" smooth="yes"/>
      <point x="676" y="556"/>
      <point x="903" y="723"/>
      <point x="950" y="870" type="qcurve"/>
      <point x="941" y="1038" type="line"/>
      <point x="914" y="862"/>
      <point x="704" y="642"/>
      <point x="547" y="642" type="qcurve" smooth="yes"/>
      <point x="393" y="642"/>
      <point x="207" y="843"/>
      <point x="207" y="1004" type="qcurve" smooth="yes"/>
      <point x="207" y="1169"/>
      <point x="387" y="1396"/>
      <point x="551" y="1396" type="qcurve" smooth="yes"/>
      <point x="721" y="1396"/>
      <point x="929" y="1120"/>
      <point x="929" y="849" type="qcurve" smooth="yes"/>
      <point x="929" y="798" type="line" smooth="yes"/>
      <point x="929" y="418"/>
      <point x="570" y="66"/>
      <point x="294" y="66" type="qcurve" smooth="yes"/>
      <point x="272" y="66" type="line"/>
      <point x="272" y="-20" type="line"/>
      <point x="320" y="-20" type="line" smooth="yes"/>
      <point x="635" y="-20"/>
      <point x="1020" y="394"/>
      <point x="1020" y="792" type="qcurve" smooth="yes"/>
      <point x="1020" y="821" type="line" smooth="yes"/>
      <point x="1020" y="1167"/>
      <point x="757" y="1482"/>
      <point x="547" y="1482" type="qcurve" smooth="yes"/>
      <point x="359" y="1482"/>
      <point x="115" y="1218"/>
    </contour>
  </outline>
</glyph>
<glyph name="C" format="1">
  <advance width="1179"/>
  <unicode hex="0043"/>
  <outline>
    <contour>
      <point x="120" y="661" type="line" smooth="yes"/>
      <point x="120" y="333"/>
      <point x="413" y="-22"/>
      <point x="646" y="-22" type="qcurve" smooth="yes"/>
      <point x="855" y="-22"/>
      <point x="1104" y="239"/>
      <point x="1128" y="454" type="qcurve" smooth="yes"/>
      <point x="1129" y="463" type="line"/>
      <point x="1039" y="463" type="line"/>
      <point x="1038" y="453" type="line" smooth="yes"/>
      <point x="1023" y="299"/>
      <point x="836" y="71"/>
      <point x="650" y="71" type="qcurve" smooth="yes"/>
      <point x="442" y="71"/>
      <point x="215" y="419"/>
      <point x="215" y="659" type="qcurve" smooth="yes"/>
      <point x="215" y="798" type="line" smooth="yes"/>
      <point x="215" y="1062"/>
      <point x="437" y="1385"/>
      <point x="650" y="1385" type="qcurve" smooth="yes"/>
      <point x="847" y="1385"/>
      <point x="1020" y="1151"/>
      <point x="1036" y="1007" type="qcurve" smooth="yes"/>
      <point x="1038" y="989" type="line"/>
      <point x="1129" y="989" type="line"/>
      <point x="1127" y="1003" type="line" smooth="yes"/>
      <point x="1095" y="1225"/>
      <point x="868" y="1478"/>
      <point x="649" y="1478" type="qcurve" smooth="yes"/>
      <point x="431" y="1478"/>
      <point x="120" y="1128"/>
      <point x="120" y="794" type="qcurve" smooth="yes"/>
    </contour>
    <contour>
      <point x="720" y="0" type="move" name="bottom"/>
    </contour>
  </outline>
</glyph>
<glyph name="D" format="1">
  <advance width="1261"/>
  <unicode hex="0044"/>
  <outline>
    <contour>
      <point x="200" y="0" type="line"/>
      <point x="548" y="0" type="line" smooth="yes"/>
      <point x="817" y="0"/>
      <point x="1141" y="337"/>
      <point x="1141" y="680" type="qcurve" smooth="yes"/>
      <point x="1141" y="801" type="line" smooth="yes"/>
      <point x="1141" y="1113"/>
      <point x="812" y="1456"/>
      <point x="566" y="1456" type="qcurve" smooth="yes"/>
      <point x="200" y="1456" type="line"/>
    </contour>
    <contour>
      <point x="291" y="86" type="line"/>
      <point x="291" y="1370" type="line"/>
      <point x="553" y="1370" type="line" smooth="yes"/>
      <point x="793" y="1370"/>
      <point x="1048" y="1055"/>
      <point x="1048" y="804" type="qcurve" smooth="yes"/>
      <point x="1048" y="678" type="line" smooth="yes"/>
      <point x="1048" y="407"/>
      <point x="802" y="85"/>
      <point x="534" y="86" type="qcurve" smooth="yes"/>
    </contour>
  </outline>
</glyph>
<glyph name="H" format="1">
  <advance width="1367"/>
  <unicode hex="0048"/>
  <outline>
    <contour>
      <point x="200" y="0" type="line"/>
      <point x="291" y="0" type="line"/>
      <point x="291" y="709" type="line"/>
      <point x="1076" y="709" type="line"/>
      <point x="1076" y="0" type="line"/>
      <point x="1167" y="0" type="line"/>
      <point x="1167" y="1456" type="line"/>
      <point x="1076" y="1456" type="line"/>
      <point x="1076" y="795" type="line"/>
      <point x="291" y="795" type="line"/>
      <point x="291" y="1456" type="line"/>
      <point x="200" y="1456" type="line"/>
    </contour>
  </outline>
</glyph>
<glyph name="K" format="1">
  <advance width="1113"/>
  <unicode hex="004B"/>
  <outline>
    <contour>
      <point x="200" y="0" type="line"/>
      <point x="291" y="0" type="line"/>
      <point x="291" y="551" type="line"/>
      <point x="1051" y="1456" type="line"/>
      <point x="936" y="1456" type="line"/>
      <point x="291" y="672" type="line"/>
      <point x="291" y="1456" type="line"/>
      <point x="200" y="1456" type="line"/>
    </contour>
    <contour>
      <point x="1047" y="0" type="line"/>
      <point x="1153" y="0" type="line"/>
      <point x="546" y="882" type="line"/>
      <point x="485" y="817" type="line"/>
    </contour>
  </outline>
</glyph>
<glyph name="O" format="1">
  <advance width="1341"/>
  <unicode hex="004F"/>
  <outline>
    <contour>
      <point x="120" y="665" type="line" smooth="yes"/>
      <point x="120" y="324"/>
      <point x="437" y="-22"/>
      <point x="671" y="-22" type="qcurve" smooth="yes"/>
      <point x="907" y="-22"/>
      <point x="1221" y="325"/>
      <point x="1221" y="665" type="qcurve" smooth="yes"/>
      <point x="1221" y="791" type="line" smooth="yes"/>
      <point x="1221" y="1133"/>
      <point x="907" y="1478"/>
      <point x="670" y="1478" type="qcurve" smooth="yes"/>
      <point x="436" y="1478"/>
      <point x="120" y="1130"/>
      <point x="120" y="791" type="qcurve" smooth="yes"/>
    </contour>
    <contour>
      <point x="213" y="663" type="qcurve" smooth="yes"/>
      <point x="213" y="795" type="line" smooth="yes"/>
      <point x="213" y="1084"/>
      <point x="466" y="1388"/>
      <point x="670" y="1388" type="qcurve" smooth="yes"/>
      <point x="878" y="1388"/>
      <point x="1128" y="1081"/>
      <point x="1128" y="795" type="qcurve" smooth="yes"/>
      <point x="1128" y="663" type="line" smooth="yes"/>
      <point x="1128" y="372"/>
      <point x="884" y="68"/>
      <point x="672" y="68" type="qcurve" smooth="yes"/>
      <point x="467" y="68"/>
      <point x="213" y="374"/>
    </contour>
    <contour>
      <point x="730" y="1432" type="move" name="top"/>
    </contour>
  </outline>
</glyph>
<glyph name="Q" format="1">
  <advance width="1340"/>
  <unicode hex="0051"/>
  <outline>
    <contour>
      <point x="120" y="686" type="line" smooth="yes"/>
      <point x="120" y="338"/>
      <point x="429" y="-13"/>
      <point x="671" y="-13" type="qcurve" smooth="yes"/>
      <point x="895" y="-13"/>
      <point x="1220" y="340"/>
      <point x="1220" y="686" type="qcurve" smooth="yes"/>
      <point x="1220" y="772" type="line" smooth="yes"/>
      <point x="1220" y="1125"/>
      <point x="895" y="1476"/>
      <point x="660" y="1476" type="qcurve" smooth="yes"/>
      <point x="428" y="1476"/>
      <point x="120" y="1123"/>
      <point x="120" y="772" type="qcurve" smooth="yes"/>
    </contour>
    <contour>
      <point x="212" y="684" type="qcurve" smooth="yes"/>
      <point x="212" y="776" type="line" smooth="yes"/>
      <point x="212" y="1072"/>
      <point x="475" y="1386"/>
      <point x="660" y="1386" type="qcurve" smooth="yes"/>
      <point x="856" y="1386"/>
      <point x="1127" y="1074"/>
      <point x="1127" y="776" type="qcurve" smooth="yes"/>
      <point x="1127" y="684" type="line" smooth="yes"/>
      <point x="1127" y="392"/>
      <point x="857" y="75"/>
      <point x="670" y="75" type="qcurve" smooth="yes"/>
      <point x="474" y="75"/>
      <point x="212" y="389"/>
    </contour>
    <contour>
      <point x="1153" y="-241" type="line"/>
      <point x="1217" y="-183" type="line"/>
      <point x="877" y="102" type="line"/>
      <point x="816" y="42" type="line"/>
    </contour>
  </outline>
</glyph>
<glyph name="R" format="1">
  <advance width="1112"/>
  <unicode hex="0052"/>
  <outline>
    <contour>
      <point x="200" y="0" type="line"/>
      <point x="291" y="0" type="line"/>
      <point x="291" y="643" type="line"/>
      <point x="622" y="643" type="line" smooth="yes"/>
      <point x="770" y="643"/>
      <point x="1002" y="844"/>
      <point x="1002" y="1055" type="qcurve" smooth="yes"/>
      <point x="1002" y="1254"/>
      <point x="781" y="1456"/>
      <point x="586" y="1456" type="qcurve" smooth="yes"/>
      <point x="200" y="1456" type="line"/>
    </contour>
    <contour>
      <point x="291" y="729" type="line"/>
      <point x="291" y="1370" type="line"/>
      <point x="577" y="1370" type="line" smooth="yes"/>
      <point x="744" y="1370"/>
      <point x="910" y="1192"/>
      <point x="910" y="1048" type="qcurve" smooth="yes"/>
      <point x="910" y="893"/>
      <point x="744" y="729"/>
      <point x="583" y="729" type="qcurve" smooth="yes"/>
    </contour>
    <contour>
      <point x="1008" y="0" type="line"/>
      <point x="1111" y="0" type="line"/>
      <point x="694" y="681" type="line"/>
      <point x="590" y="681" type="line"/>
    </contour>
  </outline>
</glyph>
<glyph name="S" format="1">
  <advance width="1068"/>
  <unicode hex="0053"/>
  <outline>
    <contour>
      <point x="96" y="393" type="line" smooth="yes"/>
      <point x="96" y="171"/>
      <point x="358" y="-22"/>
      <point x="555" y="-22" type="qcurve" smooth="yes"/>
      <point x="757" y="-22"/>
      <point x="993" y="193"/>
      <point x="993" y="372" type="qcurve" smooth="yes"/>
      <point x="993" y="547"/>
      <point x="787" y="722"/>
      <point x="576" y="785" type="qcurve" smooth="yes"/>
      <point x="372" y="846"/>
      <point x="220" y="986"/>
      <point x="220" y="1106" type="qcurve" smooth="yes"/>
      <point x="220" y="1235"/>
      <point x="385" y="1387"/>
      <point x="540" y="1387" type="qcurve" smooth="yes"/>
      <point x="697" y="1387"/>
      <point x="872" y="1221"/>
      <point x="872" y="1070" type="qcurve" smooth="yes"/>
      <point x="872" y="1046" type="line"/>
      <point x="968" y="1046" type="line"/>
      <point x="968" y="1071" type="line" smooth="yes"/>
      <point x="968" y="1251"/>
      <point x="745" y="1478"/>
      <point x="543" y="1478" type="qcurve" smooth="yes"/>
      <point x="364" y="1478"/>
      <point x="128" y="1264"/>
      <point x="128" y="1106" type="qcurve" smooth="yes"/>
      <point x="128" y="933"/>
      <point x="315" y="766"/>
      <point x="540" y="700" type="qcurve" smooth="yes"/>
      <point x="749" y="637"/>
      <point x="900" y="497"/>
      <point x="900" y="360" type="qcurve" smooth="yes"/>
      <point x="900" y="222"/>
      <point x="719" y="67"/>
      <point x="549" y="67" type="qcurve" smooth="yes"/>
      <point x="388" y="67"/>
      <point x="187" y="228"/>
      <point x="187" y="398" type="qcurve" smooth="yes"/>
      <point x="187" y="415" type="line"/>
      <point x="96" y="415" type="line"/>
    </contour>
  </outline>
</glyph>
<glyph name="T" format="1">
  <advance width="1036"/>
  <unicode hex="0054"/>
  <outline>
    <contour>
      <point x="24" y="1370" type="line"/>
      <point x="472" y="1370" type="line"/>
      <point x="472" y="0" type="line"/>
      <point x="563" y="0" type="line"/>
      <point x="563" y="1370" type="line"/>
      <point x="1012" y="1370" type="line"/>
      <point x="1012" y="1456" type="line"/>
      <point x="24" y="1456" type="line"/>
    </contour>
  </outline>
</glyph>
<glyph name="U" format="1">
  <advance width="1299"/>
  <unicode hex="0055"/>
  <outline>
    <contour>
      <point x="180" y="477" type="line" smooth="yes"/>
      <point x="180" y="213"/>
      <point x="447" y="-22"/>
      <point x="648" y="-22" type="qcurve" smooth="yes"/>
      <point x="848" y="-22"/>
      <point x="1119" y="213"/>
      <point x="1119" y="477" type="qcurve" smooth="yes"/>
      <point x="1119" y="1456" type="line"/>
      <point x="1029" y="1456" type="line"/>
      <point x="1029" y="467" type="line" smooth="yes"/>
      <point x="1029" y="266"/>
      <point x="816" y="70"/>
      <point x="648" y="70" type="qcurve" smooth="yes"/>
      <point x="480" y="70"/>
      <point x="271" y="266"/>
      <point x="271" y="467" type="qcurve" smooth="yes"/>
      <point x="271" y="1456" type="line"/>
      <point x="180" y="1456" type="line"/>
    </contour>
    <contour>
      <point x="682" y="1432" type="move" name="top"/>
    </contour>
  </outline>
</glyph>
<glyph name="W" format="1">
  <advance width="1725"/>
  <unicode hex="0057"/>
  <outline>
    <contour>
      <point x="430" y="-7" type="line"/>
      <point x="481" y="-7" type="line"/>
      <point x="826" y="1143" type="line" smooth="yes"/>
      <point x="836" y="1177"/>
      <point x="853" y="1256"/>
      <point x="858" y="1290" type="qcurve"/>
      <point x="871" y="1290" type="line"/>
      <point x="875" y="1256"/>
      <point x="893" y="1169"/>
      <point x="902" y="1140" type="qcurve" smooth="yes"/>
      <point x="1244" y="-7" type="line"/>
      <point x="1295" y="-7" type="line"/>
      <point x="1677" y="1456" type="line"/>
      <point x="1583" y="1456" type="line"/>
      <point x="1289" y="316" type="line" smooth="yes"/>
      <point x="1282" y="289"/>
      <point x="1272" y="203"/>
      <point x="1272" y="173" type="qcurve"/>
      <point x="1259" y="173" type="line"/>
      <point x="1259" y="201"/>
      <point x="1243" y="289"/>
      <point x="1235" y="316" type="qcurve" smooth="yes"/>
      <point x="885" y="1466" type="line"/>
      <point x="839" y="1466" type="line"/>
      <point x="487" y="315" type="line" smooth="yes"/>
      <point x="479" y="288"/>
      <point x="463" y="201"/>
      <point x="463" y="168" type="qcurve"/>
      <point x="453" y="168" type="line"/>
      <point x="453" y="203"/>
      <point x="443" y="287"/>
      <point x="436" y="315" type="qcurve" smooth="yes"/>
      <point x="141" y="1456" type="line"/>
      <point x="48" y="1456" type="line"/>
    </contour>
  </outline>
</glyph>
<glyph name="b" format="1">
  <advance width="1040"/>
  <unicode hex="0062"/>
  <outline>
    <contour>
      <point x="152" y="0" type="line"/>
      <point x="241" y="0" type="line"/>
      <point x="241" y="158" type="line"/>
      <point x="241" y="158" type="line"/>
      <point x="278" y="93"/>
      <point x="451" y="-17"/>
      <point x="558" y="-17" type="qcurve" smooth="yes"/>
      <point x="732" y="-17"/>
      <point x="950" y="272"/>
      <point x="950" y="529" type="qcurve" smooth="yes"/>
      <point x="950" y="549" type="line" smooth="yes"/>
      <point x="950" y="802"/>
      <point x="743" y="1073"/>
      <point x="556" y="1073" type="qcurve" smooth="yes"/>
      <point x="437" y="1073"/>
      <point x="272" y="947"/>
      <point x="241" y="886" type="qcurve"/>
      <point x="241" y="1536" type="line"/>
      <point x="152" y="1536" type="line"/>
    </contour>
    <contour>
      <point x="241" y="293" type="qcurve"/>
      <point x="241" y="745" type="line"/>
      <point x="263" y="829"/>
      <point x="421" y="987"/>
      <point x="550" y="987" type="qcurve" smooth="yes"/>
      <point x="686" y="987"/>
      <point x="859" y="771"/>
      <point x="859" y="550" type="qcurve" smooth="yes"/>
      <point x="859" y="529" type="line" smooth="yes"/>
      <point x="859" y="310"/>
      <point x="692" y="69"/>
      <point x="551" y="69" type="qcurve" smooth="yes"/>
      <point x="431" y="69"/>
      <point x="277" y="204"/>
    </contour>
  </outline>
</glyph>
<glyph name="c" format="1">
  <advance width="907"/>
  <unicode hex="0063"/>
  <outline>
    <contour>
      <point x="90" y="513" type="line" smooth="yes"/>
      <point x="90" y="260"/>
      <point x="316" y="-32"/>
      <point x="506" y="-32" type="qcurve" smooth="yes"/>
      <point x="680" y="-32"/>
      <point x="876" y="163"/>
      <point x="876" y="314" type="qcurve" smooth="yes"/>
      <point x="876" y="332" type="line"/>
      <point x="795" y="332" type="line"/>
      <point x="795" y="316" type="line" smooth="yes"/>
      <point x="795" y="204"/>
      <point x="662" y="54"/>
      <point x="506" y="54" type="qcurve" smooth="yes"/>
      <point x="338" y="54"/>
      <point x="181" y="305"/>
      <point x="181" y="518" type="qcurve" smooth="yes"/>
      <point x="181" y="545" type="line" smooth="yes"/>
      <point x="181" y="753"/>
      <point x="345" y="998"/>
      <point x="506" y="998" type="qcurve" smooth="yes"/>
      <point x="650" y="998"/>
      <point x="795" y="842"/>
      <point x="795" y="715" type="qcurve" smooth="yes"/>
      <point x="795" y="700" type="line"/>
      <point x="876" y="700" type="line"/>
      <point x="876" y="716" type="line" smooth="yes"/>
      <point x="876" y="880"/>
      <point x="676" y="1084"/>
      <point x="506" y="1084" type="qcurve" smooth="yes"/>
      <point x="318" y="1084"/>
      <point x="90" y="793"/>
      <point x="90" y="551" type="qcurve" smooth="yes"/>
    </contour>
    <contour>
      <point x="720" y="0" type="move" name="bottom"/>
    </contour>
  </outline>
</glyph>
<glyph name="d" format="1">
  <advance width="1040"/>
  <unicode hex="0064"/>
  <outline>
    <contour>
      <point x="90" y="518" type="line" smooth="yes"/>
      <point x="90" y="263"/>
      <point x="313" y="-17"/>
      <point x="487" y="-17" type="qcurve" smooth="yes"/>
      <point x="586" y="-17"/>
      <point x="743" y="74"/>
      <point x="800" y="158" type="qcurve"/>
      <point x="800" y="158" type="line"/>
      <point x="800" y="0" type="line"/>
      <point x="888" y="0" type="line"/>
      <point x="888" y="1536" type="line"/>
      <point x="799" y="1536" type="line"/>
      <point x="799" y="910" type="line"/>
      <point x="754" y="979"/>
      <point x="595" y="1073"/>
      <point x="490" y="1073" type="qcurve" smooth="yes"/>
      <point x="311" y="1073"/>
      <point x="90" y="797"/>
      <point x="90" y="537" type="qcurve" smooth="yes"/>
    </contour>
    <contour>
      <point x="181" y="517" type="qcurve" smooth="yes"/>
      <point x="181" y="536" type="line" smooth="yes"/>
      <point x="181" y="759"/>
      <point x="344" y="987"/>
      <point x="490" y="987" type="qcurve" smooth="yes"/>
      <point x="621" y="987"/>
      <point x="771" y="852"/>
      <point x="799" y="774" type="qcurve"/>
      <point x="799" y="294" type="line"/>
      <point x="767" y="209"/>
      <point x="607" y="69"/>
      <point x="487" y="69" type="qcurve" smooth="yes"/>
      <point x="347" y="69"/>
      <point x="181" y="297"/>
    </contour>
  </outline>
</glyph>
<glyph name="e" format="1">
  <advance width="914"/>
  <unicode hex="0065"/>
  <outline>
    <contour>
      <point x="90" y="503" type="line" smooth="yes"/>
      <point x="90" y="242"/>
      <point x="317" y="-33"/>
      <point x="510" y="-33" type="qcurve" smooth="yes"/>
      <point x="649.0" y="-33.0"/>
      <point x="826" y="96"/>
      <point x="871" y="215" type="qcurve"/>
      <point x="802" y="258" type="line"/>
      <point x="757" y="157"/>
      <point x="624" y="53"/>
      <point x="517" y="53" type="qcurve" smooth="yes"/>
      <point x="362" y="53"/>
      <point x="174" y="288"/>
      <point x="174" y="502" type="qcurve" smooth="yes"/>
      <point x="174" y="546" type="line" smooth="yes"/>
      <point x="174" y="753"/>
      <point x="363" y="998"/>
      <point x="496" y="998" type="qcurve" smooth="yes"/>
      <point x="635" y="998"/>
      <point x="779" y="781"/>
      <point x="779" y="661" type="qcurve" smooth="yes"/>
      <point x="779" y="595" type="line"/>
      <point x="150" y="595" type="line"/>
      <point x="150" y="516" type="line"/>
      <point x="871" y="516" type="line"/>
      <point x="871" y="572" type="line" smooth="yes"/>
      <point x="871" y="800"/>
      <point x="679" y="1084"/>
      <point x="507" y="1084" type="qcurve" smooth="yes"/>
      <point x="324" y="1084"/>
      <point x="90" y="798"/>
      <point x="90" y="545" type="qcurve" smooth="yes"/>
    </contour>
    <contour>
      <point x="581" y="1052" type="move" name="top"/>
    </contour>
  </outline>
</glyph>
<glyph name="g" format="1">
  <advance width="1040"/>
  <unicode hex="0067"/>
  <outline>
    <contour>
      <point x="117" y="-284" type="line"/>
      <point x="180" y="-353"/>
      <point x="378" y="-427"/>
      <point x="492" y="-427" type="qcurve" smooth="yes"/>
      <point x="649" y="-427"/>
      <point x="888" y="-205"/>
      <point x="888" y="23" type="qcurve" smooth="yes"/>
      <point x="888" y="1052" type="line"/>
      <point x="799" y="1052" type="line"/>
      <point x="799" y="897" type="line"/>
      <point x="799" y="897" type="line"/>
      <point x="768" y="970"/>
      <point x="601" y="1072"/>
      <point x="486" y="1072" type="qcurve" smooth="yes"/>
      <point x="329" y="1072"/>
      <point x="90" y="800"/>
      <point x="90" y="543" type="qcurve" smooth="yes"/>
      <point x="90" y="524" type="line" smooth="yes"/>
      <point x="90" y="283"/>
      <point x="298" y="-11"/>
      <point x="489" y="-11" type="qcurve" smooth="yes"/>
      <point x="595" y="-11"/>
      <point x="760" y="112"/>
      <point x="799" y="201" type="qcurve"/>
      <point x="799" y="14" type="line" smooth="yes"/>
      <point x="799" y="-141"/>
      <point x="631" y="-341"/>
      <point x="491" y="-341" type="qcurve" smooth="yes"/>
      <point x="368" y="-341"/>
      <point x="214" y="-253"/>
      <point x="182" y="-208" type="qcurve"/>
    </contour>
    <contour>
      <point x="181" y="522" type="qcurve" smooth="yes"/>
      <point x="181" y="543" type="line" smooth="yes"/>
      <point x="181" y="752"/>
      <point x="351" y="986"/>
      <point x="491" y="986" type="qcurve" smooth="yes"/>
      <point x="612" y="986"/>
      <point x="771" y="848"/>
      <point x="799" y="739" type="qcurve"/>
      <point x="799" y="334" type="line"/>
      <point x="775" y="244"/>
      <point x="622" y="75"/>
      <point x="496" y="75" type="qcurve" smooth="yes"/>
      <point x="348" y="75"/>
      <point x="181" y="314"/>
    </contour>
  </outline>
</glyph>
<glyph name="i" format="1">
  <advance width="399"/>
  <unicode hex="0069"/>
  <outline>
    <contour>
      <point x="155" y="0" type="line"/>
      <point x="244" y="0" type="line"/>
      <point x="244" y="1052" type="line"/>
      <point x="155" y="1052" type="line"/>
    </contour>
    <contour>
      <point x="128" y="1401" type="qcurve" smooth="yes"/>
      <point x="128" y="1370"/>
      <point x="168" y="1330"/>
      <point x="199" y="1330" type="qcurve" smooth="yes"/>
      <point x="230" y="1330"/>
      <point x="271" y="1370"/>
      <point x="271" y="1401" type="qcurve" smooth="yes"/>
      <point x="271" y="1433"/>
      <point x="230" y="1475"/>
      <point x="199" y="1475" type="qcurve" smooth="yes"/>
      <point x="168" y="1475"/>
      <point x="128" y="1433"/>
    </contour>
  </outline>
</glyph>
<glyph name="j" format="1">
  <advance width="427"/>
  <unicode hex="006A"/>
  <outline>
    <contour>
      <point x="-106" y="-403" type="line"/>
      <point x="-83" y="-415"/>
      <point x="-1" y="-427"/>
      <point x="29" y="-427" type="qcurve" smooth="yes"/>
      <point x="129" y="-427"/>
      <point x="256" y="-266"/>
      <point x="256" y="-69" type="qcurve" smooth="yes"/>
      <point x="256" y="1052" type="line"/>
      <point x="167" y="1052" type="line"/>
      <point x="167" y="-134" type="line" smooth="yes"/>
      <point x="167" y="-248"/>
      <point x="72" y="-337"/>
      <point x="11" y="-337" type="qcurve" smooth="yes"/>
      <point x="-32" y="-337"/>
      <point x="-85" y="-326"/>
      <point x="-106" y="-318" type="qcurve"/>
    </contour>
    <contour>
      <point x="142" y="1401" type="qcurve" smooth="yes"/>
      <point x="142" y="1370"/>
      <point x="182" y="1330"/>
      <point x="213" y="1330" type="qcurve" smooth="yes"/>
      <point x="244" y="1330"/>
      <point x="285" y="1370"/>
      <point x="285" y="1401" type="qcurve" smooth="yes"/>
      <point x="285" y="1433"/>
      <point x="244" y="1475"/>
      <point x="213" y="1475" type="qcurve" smooth="yes"/>
      <point x="182" y="1475"/>
      <point x="142" y="1433"/>
    </contour>
  </outline>
</glyph>
<glyph name="k" format="1">
  <advance width="915"/>
  <unicode hex="006B"/>
  <outline>
    <contour>
      <point x="152" y="0" type="line"/>
      <point x="241" y="0" type="line"/>
      <point x="241" y="370" type="line"/>
      <point x="899" y="1052" type="line"/>
      <point x="783" y="1052" type="line"/>
      <point x="241" y="484" type="line"/>
      <point x="241" y="1536" type="line"/>
      <point x="152" y="1536" type="line"/>
    </contour>
    <contour>
      <point x="821" y="0" type="line"/>
      <point x="933" y="0" type="line"/>
      <point x="438" y="628" type="line"/>
      <point x="377" y="569" type="line"/>
    </contour>
  </outline>
</glyph>
<glyph name="p" format="1">
  <advance width="1040"/>
  <unicode hex="0070"/>
  <outline>
    <contour>
      <point x="152" y="-416" type="line"/>
      <point x="240" y="-416" type="line"/>
      <point x="240" y="152" type="line"/>
      <point x="297" y="65"/>
      <point x="468" y="-17"/>
      <point x="560" y="-17" type="qcurve" smooth="yes"/>
      <point x="725" y="-17"/>
      <point x="950" y="277"/>
      <point x="950" y="542" type="qcurve" smooth="yes"/>
      <point x="950" y="562" type="line" smooth="yes"/>
      <point x="950" y="804"/>
      <point x="735" y="1074"/>
      <point x="565" y="1074" type="qcurve" smooth="yes"/>
      <point x="441" y="1074"/>
      <point x="262" y="950"/>
      <point x="237" y="888" type="qcurve"/>
      <point x="237" y="888" type="line"/>
      <point x="237" y="1052" type="line"/>
      <point x="152" y="1052" type="line"/>
    </contour>
    <contour>
      <point x="240" y="292" type="qcurve"/>
      <point x="240" y="757" type="line"/>
      <point x="270" y="851"/>
      <point x="436" y="988"/>
      <point x="553" y="988" type="qcurve" smooth="yes"/>
      <point x="700" y="988"/>
      <point x="859" y="735"/>
      <point x="859" y="563" type="qcurve" smooth="yes"/>
      <point x="859" y="542" type="line" smooth="yes"/>
      <point x="859" y="331"/>
      <point x="704" y="69"/>
      <point x="554" y="69" type="qcurve" smooth="yes"/>
      <point x="430" y="69"/>
      <point x="271" y="203"/>
    </contour>
  </outline>
</glyph>
<glyph name="t" format="1">
  <advance width="586"/>
  <unicode hex="0074"/>
  <outline>
    <contour>
      <point x="-20" y="967" type="line"/>
      <point x="528" y="967" type="line"/>
      <point x="528" y="1052" type="line"/>
      <point x="-20" y="1052" type="line"/>
    </contour>
    <contour>
      <point x="182" y="221" type="line" smooth="yes"/>
      <point x="182" y="105"/>
      <point x="299" y="-19"/>
      <point x="381" y="-19" type="qcurve" smooth="yes"/>
      <point x="432" y="-19"/>
      <point x="520" y="4"/>
      <point x="554" y="19" type="qcurve"/>
      <point x="554" y="105" type="line"/>
      <point x="530" y="92"/>
      <point x="448" y="67"/>
      <point x="404" y="67" type="qcurve" smooth="yes"/>
      <point x="342" y="67"/>
      <point x="271" y="164"/>
      <point x="271" y="258" type="qcurve" smooth="yes"/>
      <point x="271" y="1330" type="line"/>
      <point x="185" y="1330" type="line"/>
      <point x="185" y="1026" type="line"/>
      <point x="182" y="992" type="line"/>
    </contour>
  </outline>
</glyph>
<glyph name="u" format="1">
  <advance width="1032"/>
  <unicode hex="0075"/>
  <outline>
    <contour>
      <point x="142" y="389" type="line" smooth="yes"/>
      <point x="142" y="169"/>
      <point x="332" y="-17"/>
      <point x="465" y="-17" type="qcurve" smooth="yes"/>
      <point x="576" y="-17"/>
      <point x="741" y="73"/>
      <point x="791" y="150" type="qcurve"/>
      <point x="791" y="150" type="line"/>
      <point x="791" y="0" type="line"/>
      <point x="880" y="0" type="line"/>
      <point x="880" y="1052" type="line"/>
      <point x="791" y="1052" type="line"/>
      <point x="791" y="277" type="line"/>
      <point x="750" y="187"/>
      <point x="590" y="69"/>
      <point x="474" y="69" type="qcurve" smooth="yes"/>
      <point x="354" y="69"/>
      <point x="231" y="223"/>
      <point x="231" y="373" type="qcurve" smooth="yes"/>
      <point x="231" y="1052" type="line"/>
      <point x="142" y="1052" type="line"/>
    </contour>
    <contour>
      <point x="470" y="1052" type="move" name="top"/>
    </contour>
  </outline>
</glyph>
<glyph name="v" format="1">
  <advance width="912"/>
  <unicode hex="0076"/>
  <outline>
    <contour>
      <point x="10" y="1052" type="line"/>
      <point x="417" y="0" type="line"/>
      <point x="477" y="0" type="line"/>
      <point x="902" y="1052" type="line"/>
      <point x="807" y="1052" type="line"/>
      <point x="530" y="357" type="line" smooth="yes"/>
      <point x="514" y="317"/>
      <point x="468" y="185"/>
      <point x="456" y="147" type="qcurve"/>
      <point x="445" y="147" type="line"/>
      <point x="433" y="185"/>
      <point x="398" y="301"/>
      <point x="376" y="358" type="qcurve" smooth="yes"/>
      <point x="107" y="1052" type="line"/>
    </contour>
  </outline>
</glyph>
<glyph name="x" format="1">
  <advance width="913"/>
  <unicode hex="0078"/>
  <outline>
    <contour>
      <point x="34" y="0" type="line"/>
      <point x="141" y="0" type="line"/>
      <point x="471" y="506" type="line"/>
      <point x="484" y="506" type="line"/>
      <point x="840" y="1052" type="line"/>
      <point x="734" y="1052" type="line"/>
      <point x="427" y="580" type="line"/>
      <point x="414" y="580" type="line"/>
    </contour>
    <contour>
      <point x="54.0" y="1052.0" type="line"/>
      <point x="417.0" y="511.0" type="line"/>
      <point x="427" y="496" type="line"/>
      <point x="760.0" y="0.0" type="line"/>
      <point x="873.0" y="0.0" type="line"/>
      <point x="485.0" y="577.0" type="line"/>
      <point x="473.0" y="596.0" type="line"/>
      <point x="166.0" y="1052.0" type="line"/>
    </contour>
  </outline>
</glyph>
<glyph name="y" format="1">
  <advance width="912"/>
  <unicode hex="0079"/>
  <outline>
    <contour>
      <point x="44" y="-405" type="line"/>
      <point x="65" y="-414"/>
      <point x="128" y="-423"/>
      <point x="170" y="-423" type="qcurve" smooth="yes"/>
      <point x="245" y="-423"/>
      <point x="364" y="-305"/>
      <point x="418" y="-169" type="qcurve" smooth="yes"/>
      <point x="902" y="1052" type="line"/>
      <point x="808" y="1052" type="line"/>
      <point x="536" y="353" type="line" smooth="yes"/>
      <point x="522" y="316"/>
      <point x="468" y="159"/>
      <point x="460" y="125" type="qcurve"/>
      <point x="453" y="125" type="line"/>
      <point x="446" y="158"/>
      <point x="397" y="315"/>
      <point x="382" y="353" type="qcurve" smooth="yes"/>
      <point x="113" y="1052" type="line"/>
      <point x="16" y="1052" type="line"/>
      <point x="414" y="18" type="line"/>
      <point x="350" y="-137" type="line" smooth="yes"/>
      <point x="303" y="-251"/>
      <point x="218" y="-341"/>
      <point x="160" y="-341" type="qcurve" smooth="yes"/>
      <point x="120" y="-341"/>
      <point x="64" y="-330"/>
      <point x="44" y="-319" type="qcurve"/>
    </contour>
    <contour>
      <point x="470" y="1052" type="move" name="top"/>
    </contour>
  </outline>
</glyph>
<glyph name="z" format="1">
  <advance width="903"/>
  <unicode hex="007A"/>
  <outline>
    <contour>
      <point x="72" y="0" type="line"/>
      <point x="835" y="0" type="line"/>
      <point x="835" y="84" type="line"/>
      <point x="185" y="84" type="line"/>
      <point x="808" y="993" type="line"/>
      <point x="808" y="1052" type="line"/>
      <point x="79" y="1052" type="line"/>
      <point x="79" y="968" type="line"/>
      <point x="690" y="968" type="line"/>
      <point x="72" y="67" type="line"/>
    </contour>
  </outline>
</glyph>
